<svg width="509" height="651" viewBox="0 0 509 651" fill="none" xmlns="http://www.w3.org/2000/svg">
<path d="M374.34 71.5965L416.229 74.6473L440.475 58.3655L460.587 43.7878L473.761 48.7579L452.414 80.2906L438.131 104.317L416.579 104.251L395.635 102.726L353.855 98.1787L237.602 56.1234L189.286 38.0662C189.286 38.0662 179.513 33.5123 173.338 29.8862C168.444 27.0121 165.203 25.183 160.917 21.4617C158.517 19.3778 155.296 16.0391 155.296 16.0391C155.296 16.0391 152.964 13.7491 152.595 11.8318C152.336 10.4896 152.341 10.6338 152.776 9.33838C154.142 5.27957 159.076 5.28536 163.186 4.0806C167.87 2.70729 171.003 2.36076 175.871 1.99649C181.128 1.60308 189.335 2.9771 189.335 2.9771L374.34 71.5965Z" fill="white" stroke="#144F9D" stroke-width="3"/>
<path d="M454.26 110.003L439.365 87.3615L429.963 85.6741L421.06 84.023L445.32 108.851L454.26 110.003Z" fill="white" stroke="#144F9D" stroke-width="3"/>
<path d="M238.016 58.9863C237.264 58.6707 240.868 51.5654 243.496 45.7046C245.89 40.3644 276.151 72.2914 276.151 72.2914C276.151 72.2914 244.827 61.8439 238.016 58.9863Z" fill="white" stroke="#144F9D" stroke-width="3"/>
<path d="M307.773 35.6664L273.801 34.0493L301.856 44.4551L320.949 40.6114L314.361 38.1389L311.067 36.9027L307.773 35.6664Z" fill="#144F9D" stroke="#144F9D" stroke-width="3"/>
<path d="M296.592 34.8521L282.73 35.3465L301.244 42.7108L284.226 35.4555L296.592 34.8521Z" fill="white" stroke="white" stroke-width="0.5"/>
<path d="M298.15 64.5437L324.531 101.558L302.916 95.4716L255.528 50.9118L271.948 52.6089L286.618 57.6879L298.15 64.5437Z" fill="#144F9D" stroke="#144F9D" stroke-width="3"/>
<path d="M262.79 54.4486L261.294 54.3396L303.524 94.0119L318.729 98.6285L305.02 94.1209L262.79 54.4486Z" fill="white" stroke="white" stroke-width="0.5"/>
<path d="M169.777 3.05669C172.089 5.73165 182.165 7.5889 182.165 7.5889" stroke="#144F9D" stroke-width="4"/>
<ellipse cx="209.67" cy="20.0041" rx="1.48115" ry="2.11527" transform="rotate(25.1118 209.67 20.0041)" fill="#144F9D"/>
<ellipse cx="217.552" cy="23.5861" rx="1.48115" ry="2.11527" transform="rotate(25.1118 217.552 23.5861)" fill="#144F9D"/>
<ellipse cx="226.383" cy="26.2346" rx="1.48115" ry="2.11527" transform="rotate(25.1118 226.383 26.2346)" fill="#144F9D"/>
<ellipse cx="234.265" cy="29.8166" rx="1.48115" ry="2.11527" transform="rotate(25.1118 234.265 29.8166)" fill="#144F9D"/>
<ellipse cx="242.806" cy="32.3577" rx="1.48115" ry="2.11527" transform="rotate(18.6828 242.806 32.3577)" fill="#144F9D"/>
<ellipse cx="250.993" cy="35.4275" rx="1.54123" ry="1.99024" transform="rotate(18.6828 250.993 35.4275)" fill="#144F9D"/>
<ellipse cx="258.4" cy="38.5067" rx="1.48115" ry="2.11527" transform="rotate(18.6828 258.4 38.5067)" fill="#144F9D"/>
<ellipse cx="266.635" cy="41.1836" rx="1.48115" ry="2.11527" transform="rotate(18.6828 266.635 41.1836)" fill="#144F9D"/>
<ellipse cx="274.993" cy="44.7283" rx="1.48115" ry="2.11527" transform="rotate(18.6828 274.993 44.7283)" fill="#144F9D"/>
<ellipse cx="283.226" cy="47.4052" rx="1.48115" ry="2.11527" transform="rotate(18.6828 283.226 47.4052)" fill="#144F9D"/>
<ellipse cx="291.584" cy="50.9499" rx="1.48115" ry="2.11527" transform="rotate(18.6828 291.584 50.9499)" fill="#144F9D"/>
<ellipse cx="299.818" cy="53.6268" rx="1.48115" ry="2.11527" transform="rotate(18.6828 299.818 53.6268)" fill="#144F9D"/>
<ellipse cx="308.249" cy="56.1742" rx="1.48115" ry="2.11527" transform="rotate(18.6828 308.249 56.1742)" fill="#144F9D"/>
<ellipse cx="316.01" cy="59.7473" rx="1.48115" ry="2.11527" transform="rotate(18.6828 316.01 59.7473)" fill="#144F9D"/>
<ellipse cx="324.841" cy="62.3958" rx="1.48115" ry="2.11527" transform="rotate(18.6828 324.841 62.3958)" fill="#144F9D"/>
<ellipse cx="332.602" cy="65.969" rx="1.48115" ry="2.11527" transform="rotate(18.6828 332.602 65.969)" fill="#144F9D"/>
<ellipse cx="341.433" cy="68.6174" rx="1.48115" ry="2.11527" transform="rotate(18.6828 341.433 68.6174)" fill="#144F9D"/>
<ellipse cx="349.194" cy="72.1906" rx="1.48115" ry="2.11527" transform="rotate(18.6828 349.194 72.1906)" fill="#144F9D"/>
<ellipse cx="357.027" cy="74.7664" rx="1.48115" ry="2.11527" transform="rotate(18.6828 357.027 74.7664)" fill="#144F9D"/>
<ellipse cx="364.788" cy="78.3396" rx="1.48115" ry="2.11527" transform="rotate(18.6828 364.788 78.3396)" fill="#144F9D"/>
<path d="M189.032 219.5L68.0322 154C68.0322 154 79.7008 140.671 88.0322 133C96.5121 125.192 101.619 121.153 111.032 114.5C121.124 107.368 126.947 103.461 138.032 98C147.465 93.3531 163.032 88 163.032 88L476.532 195C476.532 195 483.002 209.172 486.532 218.5C490.03 227.74 494.532 242.5 494.532 242.5C494.532 242.5 498.683 257.018 500.532 266.5C502.419 276.176 504.032 291.5 504.032 291.5C504.032 291.5 506.749 321.332 507.532 340.5C508.321 359.816 508.032 390 508.032 390L352.532 306.5H361.032C361.032 306.5 362.661 286.216 360.532 273.5C358.3 260.162 356.081 252.596 350.032 240.5C346.542 233.521 343.89 230.107 339.032 224C334.391 218.165 331.032 214.5 325.032 209.5C319.417 204.821 316.208 203.093 310.051 199.779L309.532 199.5C303.369 196.182 299.254 194.953 292.532 193C284.948 190.797 272.532 190 272.532 190C272.532 190 260.31 189.29 252.532 190C244.218 190.758 239.078 191.272 231.032 193.5C224.247 195.379 220.841 196.875 214.532 200C208.708 202.885 205.673 205.023 200.532 209C195.722 212.721 189.032 219.5 189.032 219.5Z" fill="#3AADF0" stroke="#3AADF0"/>
<path d="M182.032 228.5L61.0322 163C61.0322 163 44.8093 184.774 36.5322 200C28.3886 214.98 24.6568 223.904 19.0322 240C14.2189 253.774 12.2413 261.766 9.03223 276C5.76335 290.499 2.53223 313.5 2.53223 313.5L155.532 429.5L151.532 409H508.032V402.5L330.532 307.5H153.532C153.532 307.5 154.417 294.902 156.032 287C157.703 278.827 159.267 274.37 162.032 266.5C164.905 258.323 166.454 253.647 170.532 246C174.381 238.784 182.032 228.5 182.032 228.5Z" fill="#144F9D" stroke="#144F9D"/>
<path d="M160.532 447L1.5323 326C1.5323 326 0.63337 347.022 0.532301 360.5C0.429798 374.169 0.564607 381.838 1.0323 395.5C1.31988 403.9 1.16322 408.64 2.0323 417C2.91187 425.461 3.93413 430.145 5.5323 438.5C7.37454 448.131 8.31641 453.578 11.0323 463C14.3174 474.397 16.8317 480.61 21.5323 491.5C26.3772 502.724 29.5531 508.837 35.5323 519.5L35.5951 519.612C40.8301 528.948 43.803 534.25 50.0323 543C56.6297 552.267 60.7869 557.169 68.5323 565.5C75.0197 572.478 78.8897 576.194 86.0323 582.5C92.7991 588.474 96.7476 591.67 104.032 597C111.768 602.66 116.363 605.485 124.532 610.5C132.582 615.441 137.01 618.427 145.532 622.5C153.122 626.127 157.666 627.52 165.532 630.5C173.676 633.585 178.176 635.548 186.532 638C194.804 640.428 199.591 641.251 208.032 643C216.583 644.772 221.383 645.8 230.032 647C245.728 649.178 254.688 649.25 270.532 649.5C285.18 649.731 293.461 650.013 308.032 648.5C317.069 647.562 322.085 646.576 331.032 645L331.937 644.841C340.206 643.385 345.121 642.519 353.532 640.5C362.608 638.321 367.707 637.038 376.532 634C384.898 631.121 397.532 625.5 397.532 625.5L271.532 530C271.532 530 259.859 529.024 252.532 527.5C244.97 525.927 240.721 524.826 233.532 522C226.624 519.285 222.966 517.201 216.532 513.5L216.002 513.195C209.848 509.656 206.195 507.555 200.532 503C195.26 498.758 192.719 495.881 188.032 491C183.338 486.111 180.609 483.415 176.532 478C172.362 472.46 170.197 469.169 167.032 463C163.954 456.999 160.532 447 160.532 447Z" fill="#BF1B36" stroke="#BF1B36"/>
<path d="M411.032 620L290.532 530C290.532 530 302.734 529.986 310.532 529.5C318.366 529.012 322.848 529.104 330.532 527.5C339.418 525.645 344.092 523.34 352.532 520C359.279 517.33 363.135 515.925 369.532 512.5C374.167 510.018 376.664 508.426 381.032 505.5C385.672 502.392 388.117 500.42 392.532 497C396.703 493.769 399.059 491.971 403.032 488.5C411.455 481.141 423.032 468 423.032 468L495.532 549.5C495.532 549.5 485.992 562.439 479.032 570C471.923 577.723 467.485 581.649 459.532 588.5C455.327 592.123 452.958 594.151 448.532 597.5C443.608 601.226 440.735 603.174 435.532 606.5C426.328 612.384 411.032 620 411.032 620Z" fill="#144F9D" stroke="#144F9D"/>
</svg>
