<svg width="922" height="259" viewBox="0 0 922 259" fill="none" xmlns="http://www.w3.org/2000/svg">
<path d="M117 127.844H91L122.5 216.844H147L178.5 127.844H154.5L135 185.844L117 127.844Z" fill="#BF1B36" stroke="#BF1B36"/>
<path d="M581.5 217.344V93.3442L605.5 101.844L606 135.344C606 135.344 609.191 132.103 611.5 130.344C613.18 129.064 614.098 128.262 616 127.344C616.102 127.295 616.21 127.239 616.324 127.179C617.802 126.386 619.411 125.882 621 125.344C626.918 123.34 637 125.344 637 125.344H637.338C639.432 125.344 641.513 125.682 643.5 126.344C643.5 126.344 646.046 127.377 647.5 128.344C648.541 129.036 649.086 129.491 650 130.344C651.315 131.573 651.892 132.425 653 133.844C654.034 135.168 654.595 135.929 655.5 137.344C656.583 139.038 657.134 140.03 658 141.844C658.906 143.742 660 146.844 660 146.844C660 146.844 661.107 150.461 661.5 152.844C661.851 154.972 662 158.344 662 158.344V217.344L637 217.404V158.344V153.844C637 152.706 636.673 150.511 635.5 148.844C634.864 147.941 634.369 147.526 633.5 146.844C632.604 146.142 632.032 145.825 631 145.344C629.88 144.823 628 144.344 628 144.344C628 144.344 625.867 143.844 624.5 143.844C623.133 143.844 621 144.344 621 144.344C621 144.344 618.823 144.824 617.5 145.344C616.281 145.824 615.626 146.175 614.5 146.844C612.821 147.841 611.881 148.463 610.5 149.844C609.119 151.225 607.5 153.844 607.5 153.844V158.344V217.404L581.5 217.344Z" fill="#BF1B36" stroke="#BF1B36"/>
<path d="M37 125.344C37.0213 125.342 47.5076 124.345 55 125.844C57.4891 126.342 60.7386 128.191 63 129.344C65.0187 130.373 67.476 132.82 67.5 132.844C67.5 132.844 69.9043 134.791 71.5 136.344C73.2839 138.08 75.9751 141.314 76 141.344C76 141.344 77.7928 144.602 79 146.844C80.1187 148.921 80.7041 150.123 81.5 152.344C82.2439 154.419 82.5148 155.647 82.9863 157.782L83 157.844C83.5092 160.15 83.9942 163.8 84 163.844V178.344H25C25 178.344 24.8605 180.092 25 181.844C25.1096 183.22 25.2134 183.993 25.5 185.344C25.7951 186.734 25.9025 187.554 26.5 188.844C27.0886 190.114 28.9784 193.307 29 193.344C29 193.344 29.7095 194.553 30.5 195.344C31 195.844 30.6798 195.605 31.5 196.344C32.4287 197.181 32.9487 197.667 34 198.344C35.1015 199.052 35.7515 199.448 37 199.844C38.3161 200.261 39.1223 200.754 40.5 200.844C41.6652 200.92 43.4879 200.844 43.5 200.844C43.5 200.844 45.9448 200.99 47.5 200.844C48.6825 200.733 49.3558 200.162 50.5 199.844C51.9326 199.445 52.2335 199.123 53.5 198.344C54.5648 197.689 55.0984 197.21 56 196.344C57.0996 195.287 57.2844 195.19 58 193.844C58.5796 192.753 60 189.844 60 189.844H83.5L81 196.344L78.5 201.344L75.5 205.844L71.5 209.344L67 212.844L62 215.844L56.5 217.844L50.5 218.844H37L30 217.344C29.9736 217.34 25.9437 216.722 23.5 215.844C21.0347 214.958 19.693 214.122 17.5 212.844C14.6273 211.169 13.0931 209.927 11 207.344C9.29259 205.236 8.25525 204.184 7 201.844C5.62802 199.286 4 195.844 4 195.844C3.97779 195.785 0.831838 187.464 0.5 183.844C0.214247 180.726 0 174.844 0 174.844V162.844L0.5 158.344L1.5 154.344L2.5 151.344L4 147.844L6.5 143.344L10 138.344L14.5 133.844L19.5 130.344L25.5 127.844C25.5263 127.835 30.0088 126.342 33 125.844C34.5596 125.584 37 125.344 37 125.344ZM38.5 143.844L35 145.344L32.5 146.844C32.5 146.844 29.4216 148.971 28 150.844C27.0484 152.098 26.5891 152.884 26 154.344C25.3974 155.837 25.2406 156.752 25 158.344C24.6227 160.84 24.5013 164.8 24.5 164.844H61.5C61.4987 164.8 61.3773 160.84 61 158.344C60.7594 156.752 60.6026 155.837 60 154.344C59.4108 152.884 58.9517 152.098 58 150.844C56.5785 148.971 53.5 146.844 53.5 146.844L51 145.344L47.5 143.844L43 143.344L38.5 143.844Z" fill="#BF1B36"/>
<path d="M222 125.171C222 125.171 232.5 124.171 240 125.671C242.489 126.169 245.739 128.018 248 129.171C250.029 130.205 252.5 132.671 252.5 132.671C252.52 132.687 254.911 134.625 256.5 136.171C258.292 137.915 261 141.171 261 141.171C261.016 141.201 262.798 144.44 264 146.671C265.119 148.748 265.704 149.95 266.5 152.171C267.244 154.247 267.515 155.473 267.986 157.608L268 157.671C268.512 159.991 269 163.671 269 163.671V178.171H210C209.998 178.195 209.861 179.931 210 181.671C210.11 183.047 210.213 183.82 210.5 185.171C210.795 186.561 210.902 187.381 211.5 188.671C212.092 189.949 214 193.171 214 193.171C214.009 193.186 214.714 194.385 215.5 195.171C216 195.671 215.68 195.432 216.5 196.171C217.429 197.008 217.949 197.495 219 198.171C220.102 198.88 220.751 199.275 222 199.671C223.316 200.088 224.122 200.581 225.5 200.671C226.664 200.747 228.486 200.672 228.5 200.671C228.5 200.671 230.945 200.817 232.5 200.671C233.682 200.56 234.356 199.99 235.5 199.671C236.933 199.272 237.234 198.95 238.5 198.171C239.565 197.516 240.099 197.037 241 196.171C242.1 195.114 242.285 195.017 243 193.671C243.577 192.586 244.986 189.7 245 189.671H268.5L266 196.171L263.5 201.171L260.5 205.671L256.5 209.171L252 212.671L247 215.671L241.5 217.671L235.5 218.671H222L215 217.171C214.986 217.169 210.947 216.55 208.5 215.671C206.035 214.785 204.693 213.949 202.5 212.671C199.627 210.996 198.093 209.755 196 207.171C194.292 205.063 193.255 204.011 192 201.671C190.634 199.125 189.015 195.702 189 195.671C189 195.671 185.833 187.304 185.5 183.671C185.215 180.566 185.002 174.716 185 174.671V162.671L185.5 158.171L186.5 154.171L187.5 151.171L189 147.671L191.5 143.171L195 138.171L199.5 133.671L204.5 130.171L210.5 127.671C210.5 127.671 215 126.171 218 125.671C219.557 125.412 221.991 125.172 222 125.171ZM223.5 143.671L220 145.171L217.5 146.671C217.486 146.681 214.418 148.802 213 150.671C212.048 151.925 211.589 152.711 211 154.171C210.397 155.664 210.241 156.579 210 158.171C209.621 160.681 209.5 164.671 209.5 164.671H246.5C246.5 164.671 246.379 160.681 246 158.171C245.759 156.579 245.603 155.664 245 154.171C244.411 152.711 243.952 151.925 243 150.671C241.585 148.806 238.527 146.69 238.5 146.671L236 145.171L232.5 143.671L228 143.171L223.5 143.671Z" fill="#BF1B36"/>
<path d="M756.5 152.844L696 131.344C696 131.344 699.896 129.362 702.5 128.344C705.548 127.152 707.5 126.344 710.5 125.844C717.914 124.608 721 124.344 728.5 125.844C733.02 126.748 736.199 128.009 740 130.344C743.43 132.451 745.321 133.839 748 136.844C750.342 139.472 751.342 141.239 753 144.344C754.69 147.511 756.5 152.844 756.5 152.844Z" fill="#144F9D" stroke="#144F9D"/>
<path d="M307 127.844H285V217.344H309V162.844C309 162.844 311.416 157.47 314 154.844C316.889 151.908 319.076 150.596 323 149.344C328.023 147.742 336.5 149.344 336.5 149.344V125.344C336.5 125.344 331.305 125.53 328 125.844C324.836 126.145 322.983 126.245 320 127.344C317.046 128.433 315.426 129.338 313 131.344C310.109 133.734 307 138.844 307 138.844V127.844Z" fill="#BF1B36" stroke="#BF1B36"/>
<path d="M777 160.844V129.844L828 147.844C828 147.844 819.488 146.935 814 148.344C812.206 148.805 811.041 149.317 809.5 150.344C808 151.344 807.37 152.112 806 153.344C804.866 154.364 804.372 155.093 803.5 156.344C802.628 157.596 802.806 157.732 802 159.344C800.5 162.344 801 168.844 801 168.844L777 160.844Z" fill="#144F9D" stroke="#144F9D"/>
<path d="M373.5 128.844H351C351 128.844 351 167.844 351 195.344C351 202.767 362 210.844 362 210.844C362 210.844 369.148 216.021 374.5 216.844C381 217.844 385.5 217.844 391.5 216.844C395.205 216.227 400 212.344 400 212.344L406.5 206.344L406.5 224.344C406.5 224.344 405.713 227.134 405 228.844C404.328 230.456 404.07 231.464 403 232.844C401.636 234.604 400.413 235.206 398.5 236.344C396.319 237.642 394.986 238.328 392.5 238.844C389.824 239.4 388.196 239.299 385.5 238.844C383.49 238.505 382.352 238.197 380.5 237.344C378.827 236.573 377.803 236.147 376.5 234.844C375.198 233.542 374.808 232.5 374 230.844L373.949 230.739C373.248 229.303 372.827 228.44 372.5 226.844C372.069 224.74 372 221.344 372 221.344L351 221.344C351 221.344 350.649 225.936 351 228.844C351.312 231.431 351.701 232.865 352.5 235.344C353.279 237.76 353.802 239.107 355 241.344C356.586 244.305 357.625 245.969 360 248.344C362.376 250.72 364.096 251.656 367 253.344C369.794 254.969 371.442 255.798 374.5 256.844C383.186 259.815 398 257.344 398 257.344C398 257.344 402.314 255.944 405 254.844C407.587 253.785 409.096 253.271 411.5 251.844C414.019 250.35 415.299 249.276 417.5 247.344C419.368 245.705 420.474 244.806 422 242.844C424.413 239.742 425.027 237.487 426.5 233.844C427.959 230.237 429.5 224.344 429.5 224.344V128.844L406.5 128.844L406 188.844C406 188.844 403.104 193.276 400.5 195.344C397.765 197.516 396.904 198.062 393.5 198.844C390.265 199.587 386.152 199.885 383 198.844C380.326 197.961 379.467 197.859 377.5 195.844C375.418 193.712 373.5 188.844 373.5 188.844V128.844Z" fill="#BF1B36" stroke="#BF1B36"/>
<path d="M467 127.844H443.5L467.5 216.344H491.5L505.5 164.344L519.5 216.344H543L568 127.844H544.5L531 185.344L516.5 127.844H495.5L481 185.344L467 127.844Z" fill="#BF1B36" stroke="#BF1B36"/>
<path d="M879.5 218.344C876.175 218.37 874.284 218.365 871 217.844C865.938 217.041 863.08 216.146 858.5 213.844C854.241 211.704 851.805 210.28 848.5 206.844C845.271 203.487 843.89 201.101 842 196.844C840.193 192.774 839 185.844 839 185.844L905 210.344C905 210.344 900.289 213.418 897 214.844C893.259 216.466 891.025 217.192 887 217.844C884.137 218.308 882.475 218.321 879.605 218.343L879.5 218.344Z" fill="#BF1B36" stroke="#BF1B36"/>
<path d="M861 156.844L840 149.844C836.5 160.844 836 166.844 837.5 181.344L863 191.344L859 176.844L919.5 177.344L881.5 163.844H860.5L861 156.844Z" fill="#144F9D" stroke="#144F9D"/>
<path d="M908.5 206.344L886.5 198.844C886.5 198.844 888.775 198.187 890 197.344C891.138 196.562 891.582 195.875 892.5 194.844C893.331 193.91 893.498 193.489 894 192.344C894.477 191.256 895 189.344 895 189.344H917.5C917.5 189.344 917.02 192.121 916.5 193.844C915.892 195.857 915.463 196.974 914.5 198.844C913.657 200.482 913.143 201.399 912 202.844C910.801 204.36 908.5 206.344 908.5 206.344Z" fill="#144F9D" stroke="#144F9D"/>
<path d="M861.5 153.844L842 146.344C842 146.344 843.646 142.882 845 140.844C846.688 138.303 847.784 136.94 850 134.844C852.128 132.832 853.481 131.839 856 130.344C858.404 128.918 859.896 128.362 862.5 127.344C865.548 126.152 867.299 125.528 870.5 124.844C873.958 124.105 875.965 123.954 879.5 123.844C883.213 123.729 885.341 123.703 889 124.344C892.408 124.941 894.392 125.324 897.5 126.844C900.273 128.201 901.585 129.42 904 131.344C906.486 133.325 907.949 134.416 910 136.844C912.097 139.327 912.897 141.017 914.5 143.844C916.008 146.503 916.954 147.972 918 150.844C918.762 152.936 919.108 154.153 919.5 156.344C919.88 158.467 919.838 159.694 920 161.844C920.338 166.327 920.5 173.344 920.5 173.344L888.5 163.844H897.5C897.5 163.844 897.857 156.762 896 152.844C894.863 150.444 893.906 149.193 892 147.344C889.979 145.383 888.595 144.438 886 143.344C883.424 142.258 881.796 141.844 879 141.844C876.204 141.844 874.578 142.262 872 143.344C869.652 144.329 868.394 145.143 866.5 146.844C864.001 149.089 861.5 153.844 861.5 153.844Z" fill="#3AADF0" stroke="#3AADF0"/>
<path d="M468.135 238.631V235.208H484.262V238.631H478.25V254.844H474.147V238.631H468.135ZM504.738 254.844V235.208H512.485C513.968 235.208 515.234 235.473 516.282 236.004C517.337 236.528 518.139 237.272 518.689 238.238C519.245 239.196 519.523 240.325 519.523 241.622C519.523 242.926 519.241 244.048 518.679 244.988C518.116 245.921 517.301 246.637 516.234 247.135C515.173 247.634 513.888 247.883 512.38 247.883H507.192V244.547H511.708C512.501 244.547 513.159 244.438 513.684 244.221C514.208 244.003 514.598 243.677 514.853 243.243C515.115 242.808 515.246 242.268 515.246 241.622C515.246 240.97 515.115 240.421 514.853 239.973C514.598 239.526 514.205 239.187 513.674 238.957C513.15 238.72 512.488 238.602 511.689 238.602H508.89V254.844H504.738ZM515.342 245.908L520.223 254.844H515.64L510.865 245.908H515.342ZM543.661 254.844H539.212L545.991 235.208H551.341L558.11 254.844H553.662L548.743 239.695H548.59L543.661 254.844ZM543.383 247.126H553.892V250.367H543.383V247.126ZM579.389 235.208L584.135 250.127H584.318L589.073 235.208H593.676L586.906 254.844H581.556L574.777 235.208H579.389ZM613.859 254.844V235.208H627.091V238.631H618.011V243.31H626.41V246.733H618.011V251.421H627.129V254.844H613.859ZM648.211 254.844V235.208H652.363V251.421H660.781V254.844H648.211Z" fill="#144F9D"/>
<path d="M709 56.8441H751L774 38.8442L793 22.8441L806.5 26.8441L787.5 59.8441L775 84.8441L753.5 86.3441H732.5L690.5 84.8441L571.5 51.3441L522 36.8442C522 36.8442 511.922 33.0121 505.5 29.8442C500.41 27.3332 497.045 25.7442 492.5 22.3441C489.955 20.4401 486.5 17.3441 486.5 17.3441C486.5 17.3441 484.008 15.2296 483.5 13.3442C483.145 12.0243 483.159 12.1679 483.5 10.8442C484.567 6.69686 489.489 6.34424 493.5 4.84416C498.072 3.13422 501.171 2.56107 506 1.84417C511.215 1.06992 519.5 1.84417 519.5 1.84417L709 56.8441Z" fill="white" stroke="#144F9D" stroke-width="3"/>
<path d="M791.5 89.3442L775 67.8442L765.5 66.8442L756.5 65.8442L782.5 88.8442L791.5 89.3442Z" fill="white" stroke="#144F9D" stroke-width="3"/>
<path d="M572.122 54.1694C571.348 53.9092 574.427 46.5609 576.622 40.5247C578.622 35.0247 611.122 64.6694 611.122 64.6694C611.122 64.6694 579.122 56.5247 572.122 54.1694Z" fill="white" stroke="#144F9D" stroke-width="3"/>
<path d="M640 25.8442L606 26.6989L634.737 35.0394L653.5 29.819L646.75 27.8316L643.375 26.8379L640 25.8442Z" fill="#144F9D" stroke="#144F9D" stroke-width="3"/>
<path d="M628.789 25.8442L615 27.3442L634 33.3442L616.5 27.3442L628.789 25.8442Z" fill="white" stroke="white" stroke-width="0.5"/>
<path d="M632.5 55.3442L661.5 90.3441L639.5 85.8441L589 44.8442L605.5 45.3442L620.5 49.3442L632.5 55.3442Z" fill="#144F9D" stroke="#144F9D" stroke-width="3"/>
<path d="M596.5 47.8442H595L640 84.3442L655.5 87.8442L641.5 84.3442L596.5 47.8442Z" fill="white" stroke="white" stroke-width="0.5"/>
<path d="M500 3.34416C502.5 5.84413 512.684 6.96459 512.684 6.96459" stroke="#144F9D" stroke-width="4"/>
<ellipse cx="541.018" cy="17.3491" rx="1.48115" ry="2.11527" transform="rotate(20.9464 541.018 17.3491)" fill="#144F9D"/>
<ellipse cx="549.14" cy="20.3491" rx="1.48115" ry="2.11527" transform="rotate(20.9464 549.14 20.3491)" fill="#144F9D"/>
<ellipse cx="558.14" cy="22.3491" rx="1.48115" ry="2.11527" transform="rotate(20.9464 558.14 22.3491)" fill="#144F9D"/>
<ellipse cx="566.261" cy="25.3491" rx="1.48115" ry="2.11527" transform="rotate(20.9464 566.261 25.3491)" fill="#144F9D"/>
<ellipse cx="574.964" cy="27.2632" rx="1.48115" ry="2.11527" transform="rotate(14.5173 574.964 27.2632)" fill="#144F9D"/>
<ellipse cx="583.352" cy="29.7302" rx="1.54123" ry="1.99024" transform="rotate(14.5173 583.352 29.7302)" fill="#144F9D"/>
<ellipse cx="590.964" cy="32.2632" rx="1.48115" ry="2.11527" transform="rotate(14.5173 590.964 32.2632)" fill="#144F9D"/>
<ellipse cx="599.371" cy="34.3349" rx="1.48115" ry="2.11527" transform="rotate(14.5173 599.371 34.3349)" fill="#144F9D"/>
<ellipse cx="607.964" cy="37.2632" rx="1.48115" ry="2.11527" transform="rotate(14.5173 607.964 37.2632)" fill="#144F9D"/>
<ellipse cx="616.37" cy="39.3349" rx="1.48115" ry="2.11527" transform="rotate(14.5173 616.37 39.3349)" fill="#144F9D"/>
<ellipse cx="624.964" cy="42.2632" rx="1.48115" ry="2.11527" transform="rotate(14.5173 624.964 42.2632)" fill="#144F9D"/>
<ellipse cx="633.37" cy="44.3349" rx="1.48115" ry="2.11527" transform="rotate(14.5173 633.37 44.3349)" fill="#144F9D"/>
<ellipse cx="641.964" cy="46.2632" rx="1.48115" ry="2.11527" transform="rotate(14.5173 641.964 46.2632)" fill="#144F9D"/>
<ellipse cx="649.964" cy="49.2632" rx="1.48115" ry="2.11527" transform="rotate(14.5173 649.964 49.2632)" fill="#144F9D"/>
<ellipse cx="658.964" cy="51.2632" rx="1.48115" ry="2.11527" transform="rotate(14.5173 658.964 51.2632)" fill="#144F9D"/>
<ellipse cx="666.964" cy="54.2632" rx="1.48115" ry="2.11527" transform="rotate(14.5173 666.964 54.2632)" fill="#144F9D"/>
<ellipse cx="675.964" cy="56.2632" rx="1.48115" ry="2.11527" transform="rotate(14.5173 675.964 56.2632)" fill="#144F9D"/>
<ellipse cx="683.964" cy="59.2632" rx="1.48115" ry="2.11527" transform="rotate(14.5173 683.964 59.2632)" fill="#144F9D"/>
<ellipse cx="691.964" cy="61.2632" rx="1.48115" ry="2.11527" transform="rotate(14.5173 691.964 61.2632)" fill="#144F9D"/>
<ellipse cx="699.964" cy="64.2632" rx="1.48115" ry="2.11527" transform="rotate(14.5173 699.964 64.2632)" fill="#144F9D"/>
<path d="M777 216.344V164.344L800.5 172.844V215.844L777 216.344Z" fill="#BF1B36" stroke="#BF1B36"/>
<path d="M799.5 127.844L780.5 127.344L799.5 133.844V127.844Z" fill="#3AADF0"/>
<path d="M829.5 143.844L802.5 134.344C802.5 134.344 805.534 130.618 808 128.844C811.122 126.598 813.259 125.737 817 124.844C821.748 123.711 829.5 124.844 829.5 124.844V143.844Z" fill="#3AADF0"/>
<path d="M799.5 127.844L780.5 127.344L799.5 133.844V127.844Z" stroke="#3AADF0"/>
<path d="M829.5 143.844L802.5 134.344C802.5 134.344 805.534 130.618 808 128.844C811.122 126.598 813.259 125.737 817 124.844C821.748 123.711 829.5 124.844 829.5 124.844V143.844Z" stroke="#3AADF0"/>
<path d="M714 142.844L691.5 133.844C691.5 133.844 685.769 139.207 683 143.344C679.89 147.991 678.602 150.987 677 156.344C673.756 167.195 677 185.344 677 185.344C677 185.344 679.649 194.208 682.5 199.344C684.946 203.75 686.217 206.515 690 209.844C693.674 213.076 696.401 214.174 701 215.844C706.401 217.805 709.768 217.936 715.5 218.344C719.59 218.635 721 218.844 726 218.344C731 217.844 732.5 217.844 736.5 216.344C740.5 214.844 743.987 212.743 747.5 209.844C751.127 206.851 753.149 204.917 755.5 200.844C757.476 197.42 759.5 190.344 759.5 190.344H736C736 190.344 733.809 194.795 731.5 196.844C728.756 199.279 726.599 200.134 723 200.844C720.126 201.411 718.384 201.353 715.5 200.844C713.068 200.415 711.703 199.96 709.5 198.844C707.374 197.767 706.037 197.166 704.5 195.344C703.092 193.675 702.393 192.336 701.5 190.344C700.64 188.425 700.463 187.396 700 185.344C699.355 182.487 700 177.844 700 177.844H760.5V166.844C760.5 164.853 760.06 163.755 759.5 161.844C759.03 160.243 758 157.844 758 157.844L732 147.844C732 147.844 733.964 149.872 735 151.344L735.049 151.415C736.177 153.016 736.85 153.972 737.5 155.844C738.526 158.801 738 163.844 738 163.844H700C700 163.844 700.069 160.156 700.5 157.844C700.986 155.233 701.207 153.664 702.5 151.344C703.912 148.808 705.152 147.552 707.5 145.844C709.761 144.2 714 142.844 714 142.844Z" fill="#BF1B36" stroke="#BF1B36"/>
<line x1="669.819" y1="97.7529" x2="674.912" y2="99.0265" stroke="#144F9D" stroke-width="3" stroke-linecap="round"/>
<line x1="684.819" y1="101.753" x2="689.909" y2="103.025" stroke="#144F9D" stroke-width="3" stroke-linecap="round"/>
<line x1="698.819" y1="105.753" x2="703.909" y2="107.025" stroke="#144F9D" stroke-width="3" stroke-linecap="round"/>
<line x1="713.819" y1="109.753" x2="718.909" y2="111.025" stroke="#144F9D" stroke-width="3" stroke-linecap="round"/>
<line x1="729.819" y1="113.753" x2="734.909" y2="115.025" stroke="#144F9D" stroke-width="3" stroke-linecap="round"/>
<line x1="764.819" y1="123.753" x2="769.909" y2="125.025" stroke="#144F9D" stroke-width="3" stroke-linecap="round"/>
<line x1="746.819" y1="118.753" x2="751.909" y2="120.025" stroke="#144F9D" stroke-width="3" stroke-linecap="round"/>
</svg>
